HIERARCHY
ROOT Hips
{
	OFFSET	0.000000	0.000000	0.000000
	CHANNELS	6	Xposition	Yposition	Zposition	Zrotation	Xrotation	Yrotation
	JOINT LeftHip
	{
		OFFSET	15.500000	-8.200000	0.000000
		CHANNELS	3	Zrotation	Xrotation	Yrotation
		JOINT LeftKnee
		{
			OFFSET	0.000000	-41.000000	0.000000
			CHANNELS	3	Zrotation	Xrotation	Yrotation
			JOINT LeftAnkle
			{
				OFFSET	0.000000	-41.500000	0.000000
				CHANNELS	3	Zrotation	Xrotation	Yrotation
				End Site
				{
					OFFSET	0.000000	0.000000	22.875000
				}
			}
		}
	}
	JOINT RightHip
	{
		OFFSET	-15.500000	-8.200000	0.000000
		CHANNELS	3	Zrotation	Xrotation	Yrotation
		JOINT RightKnee
		{
			OFFSET	0.000000	-41.000000	0.000000
			CHANNELS	3	Zrotation	Xrotation	Yrotation
			JOINT RightAnkle
			{
				OFFSET	0.000000	-41.500000	0.000000
				CHANNELS	3	Zrotation	Xrotation	Yrotation
				End Site
				{
					OFFSET	0.000000	0.000000	22.875000
				}
			}
		}
	}
	JOINT Chest
	{
		OFFSET	0.000000	16.666667	0.000000
		CHANNELS	3	Zrotation	Xrotation	Yrotation
		JOINT LeftCollar
		{
			OFFSET	4.625000	33.333333	1.541667
			CHANNELS	3	Zrotation	Xrotation	Yrotation
			JOINT LeftShoulder
			{
				OFFSET	13.875000	0.000000	0.000000
				CHANNELS	3	Zrotation	Xrotation	Yrotation
				JOINT LeftElbow
				{
					OFFSET	0.000000	-28.000000	0.000000
					CHANNELS	3	Zrotation	Xrotation	Yrotation
					JOINT LeftWrist
					{
						OFFSET	0.000000	-25.000000	0.000000
						CHANNELS	3	Zrotation	Xrotation	Yrotation
						End Site
						{
							OFFSET	0.000000	-7.500000	0.000000
						}
					}
				}
			}
		}
		JOINT RightCollar
		{
			OFFSET	-4.625000	33.333333	1.541667
			CHANNELS	3	Zrotation	Xrotation	Yrotation
			JOINT RightShoulder
			{
				OFFSET	-13.875000	0.000000	0.000000
				CHANNELS	3	Zrotation	Xrotation	Yrotation
				JOINT RightElbow
				{
					OFFSET	0.000000	-28.000000	0.000000
					CHANNELS	3	Zrotation	Xrotation	Yrotation
					JOINT RightWrist
					{
						OFFSET	0.000000	-25.000000	0.000000
						CHANNELS	3	Zrotation	Xrotation	Yrotation
						End Site
						{
							OFFSET	0.000000	-7.500000	0.000000
						}
					}
				}
			}
		}
		JOINT Neck
		{
			OFFSET	0.000000	33.333333	0.000000
			CHANNELS	3	Zrotation	Xrotation	Yrotation
			JOINT Head
			{
				OFFSET	0.000000	12.000000	0.000000
				CHANNELS	3	Zrotation	Xrotation	Yrotation
				End Site
				{
					OFFSET	0.000000	15.000000	0.000000
				}
			}
		}
	}
}
MOTION
Frames:	12
Frame Time:	0.012000
-28.13	76.73	-113.33	19.33	35.93	-28.81	153.23	-80.87	169.46	0.00	63.65	0.00	-0.09	25.76	1.97	15.29	-76.56	12.32	0.00	35.62	0.00	4.15	26.06	-5.03	5.03	-1.78	11.83	0.00	0.00	0.00	21.90	-20.72	36.54	-18.38	-7.07	-28.26	3.19	-1.76	0.00	0.00	0.00	0.00	6.82	-23.91	-15.79	28.87	-9.64	21.28	-6.89	-3.58	0.00	0.00	0.00	0.00	-14.33	-40.03	5.17
-28.71	77.49	-112.88	19.24	35.75	-28.76	147.51	-81.89	163.84	0.00	62.48	0.00	0.09	26.07	1.75	14.22	-75.66	11.42	0.00	34.68	0.00	4.20	26.50	-5.13	5.03	-1.81	11.75	0.00	0.00	0.00	21.60	-20.72	36.23	-17.93	-7.35	-27.80	3.23	-1.68	0.00	0.00	0.00	0.00	7.06	-23.87	-14.95	28.17	-9.92	20.87	-6.83	-3.50	0.00	0.00	0.00	0.00	-14.08	-39.99	5.41
-29.21	78.25	-112.66	19.05	35.39	-28.68	140.07	-82.82	156.54	0.00	61.30	0.00	0.33	26.33	1.55	13.30	-74.75	10.72	0.00	33.73	0.00	4.29	26.90	-5.26	5.06	-1.85	11.66	0.00	0.00	0.00	21.34	-20.72	35.94	-17.54	-7.51	-27.42	3.20	-1.59	0.00	0.00	0.00	0.00	7.23	-23.91	-14.12	27.48	-10.03	20.43	-6.83	-3.39	0.00	0.00	0.00	0.00	-13.48	-40.16	5.94
-29.60	78.98	-112.67	18.91	35.10	-28.61	130.42	-83.61	147.05	0.00	60.12	0.00	0.55	26.64	1.27	12.49	-73.82	10.15	0.00	32.79	0.00	4.38	27.32	-5.41	5.06	-1.89	11.58	0.00	0.00	0.00	21.06	-20.71	35.71	-17.16	-7.61	-27.14	3.15	-1.52	0.00	0.00	0.00	0.00	7.37	-23.92	-13.36	26.86	-10.07	20.01	-6.83	-3.28	0.00	0.00	0.00	0.00	-13.32	-39.83	6.13
-30.07	79.74	-112.52	18.91	35.10	-28.61	118.42	-84.18	135.19	0.00	58.94	0.00	0.75	26.96	1.02	11.76	-72.88	9.65	0.00	31.86	0.00	4.49	27.72	-5.56	5.07	-1.94	11.48	0.00	0.00	0.00	20.81	-20.67	35.48	-16.86	-7.63	-26.98	3.11	-1.47	0.00	0.00	0.00	0.00	7.50	-23.92	-12.70	26.24	-9.99	19.55	-6.78	-3.15	0.00	0.00	0.00	0.00	-13.23	-39.80	6.27
-30.71	80.50	-111.93	18.56	34.47	-28.46	104.36	-84.47	121.26	0.00	57.78	0.00	0.92	27.31	0.79	11.10	-71.92	9.25	0.00	30.94	0.00	4.62	28.12	-5.72	5.06	-2.01	11.38	0.00	0.00	0.00	20.55	-20.62	35.25	-16.60	-7.65	-26.92	3.10	-1.45	0.00	0.00	0.00	0.00	7.56	-23.91	-12.09	25.68	-9.88	19.14	-6.66	-3.03	0.00	0.00	0.00	0.00	-12.63	-39.40	6.83
-30.97	81.22	-112.19	18.56	34.47	-28.46	89.67	-84.39	106.72	0.00	56.59	0.00	1.09	27.68	0.57	10.49	-70.95	8.90	0.00	30.05	0.00	4.74	28.48	-5.87	5.07	-2.06	11.27	0.00	0.00	0.00	20.33	-20.52	35.01	-16.39	-7.63	-26.94	3.15	-1.42	0.00	0.00	0.00	0.00	7.63	-23.86	-11.55	25.14	-9.76	18.78	-6.55	-2.95	0.00	0.00	0.00	0.00	-12.26	-39.69	7.19
-31.65	82.00	-111.53	18.40	34.23	-28.39	76.19	-83.98	93.37	0.00	55.43	0.00	1.24	28.02	0.36	9.93	-69.98	8.59	0.00	29.13	0.00	4.84	28.80	-6.02	5.09	-2.10	11.16	0.00	0.00	0.00	20.13	-20.40	34.77	-16.23	-7.57	-27.00	3.21	-1.39	0.00	0.00	0.00	0.00	7.72	-23.84	-11.05	24.59	-9.62	18.49	-6.50	-2.89	0.00	0.00	0.00	0.00	-12.08	-39.40	7.41
-32.19	82.75	-111.21	18.07	33.73	-28.23	64.94	-83.29	82.27	0.00	54.27	0.00	1.32	28.43	0.11	9.45	-68.98	8.41	0.00	28.25	0.00	4.97	29.06	-6.19	5.10	-2.15	11.04	0.00	0.00	0.00	19.91	-20.30	34.51	-16.03	-7.48	-27.04	3.29	-1.37	0.00	0.00	0.00	0.00	7.73	-23.79	-10.58	24.10	-9.46	18.31	-6.49	-2.85	0.00	0.00	0.00	0.00	-11.19	-39.44	8.22
-32.54	83.47	-111.25	17.81	33.33	-28.11	56.18	-82.41	73.63	0.00	53.13	0.00	1.43	28.75	-0.08	8.99	-67.96	8.27	0.00	27.37	0.00	5.14	29.42	-6.39	5.09	-2.22	10.93	0.00	0.00	0.00	19.67	-20.18	34.23	-15.82	-7.39	-27.05	3.34	-1.33	0.00	0.00	0.00	0.00	7.70	-23.75	-10.12	23.66	-9.26	18.21	-6.47	-2.81	0.00	0.00	0.00	0.00	-10.82	-39.06	8.57
-32.97	84.20	-111.17	17.61	33.04	-28.02	49.45	-81.41	67.04	0.00	52.02	0.00	1.54	29.05	-0.24	8.55	-66.92	8.12	0.00	26.53	0.00	5.29	29.81	-6.57	5.10	-2.27	10.81	0.00	0.00	0.00	19.47	-20.09	33.93	-15.60	-7.26	-26.99	3.38	-1.28	0.00	0.00	0.00	0.00	7.68	-23.69	-9.67	23.23	-9.06	18.16	-6.41	-2.76	0.00	0.00	0.00	0.00	-10.18	-39.12	9.14
-33.45	84.90	-110.90	17.21	32.44	-27.83	44.26	-80.33	61.96	0.00	50.95	0.00	1.67	29.37	-0.43	8.11	-65.87	7.96	0.00	25.71	0.00	5.42	30.19	-6.74	5.12	-2.33	10.69	0.00	0.00	0.00	19.27	-20.00	33.56	-15.40	-7.13	-26.94	3.46	-1.20	0.00	0.00	0.00	0.00	7.67	-23.62	-9.23	22.79	-8.85	18.10	-6.36	-2.70	0.00	0.00	0.00	0.00	-9.44	-38.85	9.74
